<svg xmlns="http://www.w3.org/2000/svg" width="1920" height="1080" viewBox="0 0 1920 1080">
<defs></defs><rect width="1920" height="1080" fill="#F3EFE4"/><circle cx="13" cy="0" r="1.4" fill="#B7B2A8" opacity="0.35"/><circle cx="80" cy="319" r="1.4" fill="#B7B2A8" opacity="0.35"/><circle cx="147" cy="638" r="1.4" fill="#B7B2A8" opacity="0.35"/><circle cx="214" cy="957" r="1.4" fill="#B7B2A8" opacity="0.35"/><circle cx="281" cy="196" r="1.4" fill="#B7B2A8" opacity="0.35"/><circle cx="348" cy="515" r="1.4" fill="#B7B2A8" opacity="0.35"/><circle cx="415" cy="834" r="1.4" fill="#B7B2A8" opacity="0.35"/><circle cx="482" cy="73" r="1.4" fill="#B7B2A8" opacity="0.35"/><circle cx="549" cy="392" r="1.4" fill="#B7B2A8" opacity="0.35"/><circle cx="616" cy="711" r="1.4" fill="#B7B2A8" opacity="0.35"/><circle cx="683" cy="1030" r="1.4" fill="#B7B2A8" opacity="0.35"/><circle cx="750" cy="269" r="1.4" fill="#B7B2A8" opacity="0.35"/><circle cx="817" cy="588" r="1.4" fill="#B7B2A8" opacity="0.35"/><circle cx="884" cy="907" r="1.4" fill="#B7B2A8" opacity="0.35"/><circle cx="951" cy="146" r="1.4" fill="#B7B2A8" opacity="0.35"/><circle cx="1018" cy="465" r="1.4" fill="#B7B2A8" opacity="0.35"/><circle cx="1085" cy="784" r="1.4" fill="#B7B2A8" opacity="0.35"/><circle cx="1152" cy="23" r="1.4" fill="#B7B2A8" opacity="0.35"/><circle cx="1219" cy="342" r="1.4" fill="#B7B2A8" opacity="0.35"/><circle cx="1286" cy="661" r="1.4" fill="#B7B2A8" opacity="0.35"/><circle cx="1353" cy="980" r="1.4" fill="#B7B2A8" opacity="0.35"/><circle cx="1420" cy="219" r="1.4" fill="#B7B2A8" opacity="0.35"/><circle cx="1487" cy="538" r="1.4" fill="#B7B2A8" opacity="0.35"/><circle cx="1554" cy="857" r="1.4" fill="#B7B2A8" opacity="0.35"/><circle cx="1621" cy="96" r="1.4" fill="#B7B2A8" opacity="0.35"/><circle cx="1688" cy="415" r="1.4" fill="#B7B2A8" opacity="0.35"/><circle cx="1755" cy="734" r="1.4" fill="#B7B2A8" opacity="0.35"/><circle cx="1822" cy="1053" r="1.4" fill="#B7B2A8" opacity="0.35"/><circle cx="1889" cy="292" r="1.4" fill="#B7B2A8" opacity="0.35"/><rect x="120" y="0" width="1680" height="1080" fill="#F3EFE4"/><path d="M 820 -20 C 720 260 780 510 700 1100 L 1260 1100 C 1180 720 1270 430 1120 -20 Z" fill="none" stroke="#B7B2A8" stroke-width="10"/><g transform="translate(830,380) scale(0.75)">
<defs></defs><rect x="50" y="78" width="156" height="104" rx="12" fill="#F3EFE4" stroke="#1A1A1A" stroke-width="7"/><rect x="51.5" y="77.0" width="156" height="104" rx="13" fill="none" stroke="#1A1A1A" stroke-width="2" opacity="0.55"/><circle cx="82" cy="190" r="20" fill="#F3EFE4" stroke="#1A1A1A" stroke-width="7" opacity="1"/><circle cx="174" cy="190" r="20" fill="#F3EFE4" stroke="#1A1A1A" stroke-width="7" opacity="1"/><circle cx="82" cy="190" r="8" fill="none" stroke="#77736C" stroke-width="3" opacity="1"/><circle cx="174" cy="190" r="8" fill="none" stroke="#77736C" stroke-width="3" opacity="1"/><circle cx="130" cy="59" r="16" fill="#F3EFE4" stroke="#1A1A1A" stroke-width="6" opacity="1"/><path d="M 130 42 Q 131.6 33.4 130 28" fill="none" stroke="#1A1A1A" stroke-width="5" stroke-linecap="round" stroke-linejoin="round" opacity="1.0"/><path d="M 128 104 L 108 153 L 148 149 Z" fill="none" stroke="#1A1A1A" stroke-width="7" stroke-linejoin="round"/><circle cx="128" cy="128" r="4" fill="#1A1A1A" stroke="#1A1A1A" stroke-width="1" opacity="1"/></g><circle cx="720" cy="520" r="28" fill="#F3EFE4" stroke="#1A1A1A" stroke-width="6" opacity="1"/><circle cx="1180" cy="540" r="28" fill="#F3EFE4" stroke="#1A1A1A" stroke-width="6" opacity="1"/><circle cx="760" cy="720" r="28" fill="#F3EFE4" stroke="#1A1A1A" stroke-width="6" opacity="1"/><circle cx="1120" cy="700" r="28" fill="#F3EFE4" stroke="#1A1A1A" stroke-width="6" opacity="1"/><circle cx="610" cy="330" r="24" fill="#1A1A1A" stroke="#1A1A1A" stroke-width="3" opacity="1"/><circle cx="1290" cy="360" r="24" fill="#1A1A1A" stroke="#1A1A1A" stroke-width="3" opacity="1"/><circle cx="1410" cy="650" r="24" fill="#1A1A1A" stroke="#1A1A1A" stroke-width="3" opacity="1"/><path d="M 1450 410 L 1418 474 L 1482 474 Z" fill="none" stroke="#1A1A1A" stroke-width="7"/><rect x="24" y="24" width="470" height="150" rx="18" fill="#F3EFE4" stroke="#1A1A1A" stroke-width="4"/><text x="48" y="62" font-family="Arial, sans-serif" font-size="26" font-weight="600" text-anchor="start" fill="#1A1A1A">CARGO</text><path d="M 44 76 Q 260.6 74.4 474 76" fill="none" stroke="#B7B2A8" stroke-width="3" stroke-linecap="round" stroke-linejoin="round" opacity="1.0"/><text x="55" y="112" font-family="Arial, sans-serif" font-size="24" font-weight="600" text-anchor="start" fill="#1A1A1A">Health 78 / 100</text><text x="260" y="112" font-family="Arial, sans-serif" font-size="22" font-weight="400" text-anchor="start" fill="#77736C">Speed Normal · Terrain 1.00</text><rect x="650" y="24" width="620" height="150" rx="18" fill="#F3EFE4" stroke="#1A1A1A" stroke-width="4"/><text x="760" y="92" font-family="Arial, sans-serif" font-size="22" font-weight="600" text-anchor="start" fill="#1A1A1A">Portal 5,480 px</text><text x="960" y="92" font-family="Arial, sans-serif" font-size="22" font-weight="600" text-anchor="start" fill="#1A1A1A">Threat 31</text><text x="1130" y="92" font-family="Arial, sans-serif" font-size="22" font-weight="600" text-anchor="start" fill="#1A1A1A">02:18</text><rect x="24" y="760" width="650" height="290" rx="18" fill="#F3EFE4" stroke="#1A1A1A" stroke-width="4"/><text x="48" y="798" font-family="Arial, sans-serif" font-size="26" font-weight="600" text-anchor="start" fill="#1A1A1A">DEFENDERS</text><path d="M 44 812 Q 350.6 810.4 654 812" fill="none" stroke="#B7B2A8" stroke-width="3" stroke-linecap="round" stroke-linejoin="round" opacity="1.0"/><rect x="52" y="835" width="128" height="150" rx="12" fill="#F3EFE4" stroke="#1A1A1A" stroke-width="4"/><text x="116" y="880" font-family="Arial, sans-serif" font-size="31" font-weight="600" text-anchor="middle" fill="#1A1A1A">G</text><text x="116" y="920" font-family="Arial, sans-serif" font-size="18" font-weight="600" text-anchor="middle" fill="#77736C">100 HP</text><text x="116" y="952" font-family="Arial, sans-serif" font-size="16" font-weight="600" text-anchor="middle" fill="#77736C">Defend</text><rect x="202" y="835" width="128" height="150" rx="12" fill="#F3EFE4" stroke="#1A1A1A" stroke-width="4"/><text x="266" y="880" font-family="Arial, sans-serif" font-size="31" font-weight="600" text-anchor="middle" fill="#1A1A1A">S</text><text x="266" y="920" font-family="Arial, sans-serif" font-size="18" font-weight="600" text-anchor="middle" fill="#77736C">80 HP</text><text x="266" y="952" font-family="Arial, sans-serif" font-size="16" font-weight="600" text-anchor="middle" fill="#77736C">Attack</text><rect x="352" y="835" width="128" height="150" rx="12" fill="#F3EFE4" stroke="#1A1A1A" stroke-width="4"/><text x="416" y="880" font-family="Arial, sans-serif" font-size="31" font-weight="600" text-anchor="middle" fill="#1A1A1A">E</text><text x="416" y="920" font-family="Arial, sans-serif" font-size="18" font-weight="600" text-anchor="middle" fill="#77736C">90 HP</text><text x="416" y="952" font-family="Arial, sans-serif" font-size="16" font-weight="600" text-anchor="middle" fill="#77736C">Repair</text><rect x="502" y="835" width="128" height="150" rx="12" fill="#F3EFE4" stroke="#1A1A1A" stroke-width="4"/><text x="566" y="880" font-family="Arial, sans-serif" font-size="31" font-weight="600" text-anchor="middle" fill="#1A1A1A">W</text><text x="566" y="920" font-family="Arial, sans-serif" font-size="18" font-weight="600" text-anchor="middle" fill="#77736C">120 HP</text><text x="566" y="952" font-family="Arial, sans-serif" font-size="16" font-weight="600" text-anchor="middle" fill="#77736C">Defend</text><rect x="700" y="860" width="520" height="190" rx="18" fill="#F3EFE4" stroke="#1A1A1A" stroke-width="4"/><text x="724" y="898" font-family="Arial, sans-serif" font-size="26" font-weight="600" text-anchor="start" fill="#1A1A1A">ORDERS</text><path d="M 720 912 Q 961.6 910.4 1200 912" fill="none" stroke="#B7B2A8" stroke-width="3" stroke-linecap="round" stroke-linejoin="round" opacity="1.0"/><rect x="726" y="930" width="145" height="70" rx="10" fill="#F3EFE4" stroke="#1A1A1A" stroke-width="4"/><text x="798.5" y="974" font-family="Arial, sans-serif" font-size="18" font-weight="600" text-anchor="middle" fill="#1A1A1A">Z Attack</text><rect x="886" y="930" width="145" height="70" rx="10" fill="#F3EFE4" stroke="#1A1A1A" stroke-width="4"/><text x="958.5" y="974" font-family="Arial, sans-serif" font-size="18" font-weight="600" text-anchor="middle" fill="#1A1A1A">X Defend</text><rect x="1046" y="930" width="145" height="70" rx="10" fill="#F3EFE4" stroke="#1A1A1A" stroke-width="4"/><text x="1118.5" y="974" font-family="Arial, sans-serif" font-size="18" font-weight="600" text-anchor="middle" fill="#1A1A1A">C Repair</text><rect x="1245" y="800" width="650" height="250" rx="18" fill="#F3EFE4" stroke="#1A1A1A" stroke-width="4"/><text x="1269" y="838" font-family="Arial, sans-serif" font-size="26" font-weight="600" text-anchor="start" fill="#1A1A1A">SPELLS</text><path d="M 1265 852 Q 1571.6 850.4 1875 852" fill="none" stroke="#B7B2A8" stroke-width="3" stroke-linecap="round" stroke-linejoin="round" opacity="1.0"/><rect x="1280" y="865" width="580" height="28" rx="7" fill="#B7B2A8" opacity="0.5"/><rect x="1280" y="865" width="464" height="28" rx="7" fill="#1A1A1A"/><rect x="1280" y="920" width="170" height="85" rx="10" fill="#F3EFE4" stroke="#1A1A1A" stroke-width="4"/><text x="1304" y="952" font-family="Arial, sans-serif" font-size="20" font-weight="600" text-anchor="start" fill="#77736C">1</text><text x="1365" y="965" font-family="Arial, sans-serif" font-size="20" font-weight="600" text-anchor="middle" fill="#1A1A1A">Arc Bolt</text><text x="1365" y="990" font-family="Arial, sans-serif" font-size="14" font-weight="400" text-anchor="middle" fill="#77736C">5 mana</text><rect x="1470" y="920" width="170" height="85" rx="10" fill="#F3EFE4" stroke="#1A1A1A" stroke-width="4"/><text x="1494" y="952" font-family="Arial, sans-serif" font-size="20" font-weight="600" text-anchor="start" fill="#77736C">2</text><text x="1555" y="965" font-family="Arial, sans-serif" font-size="20" font-weight="600" text-anchor="middle" fill="#1A1A1A">Heal</text><text x="1555" y="990" font-family="Arial, sans-serif" font-size="14" font-weight="400" text-anchor="middle" fill="#77736C">25 mana</text><rect x="1660" y="920" width="170" height="85" rx="10" fill="#F3EFE4" stroke="#1A1A1A" stroke-width="4"/><text x="1684" y="952" font-family="Arial, sans-serif" font-size="20" font-weight="600" text-anchor="start" fill="#77736C">3</text><text x="1745" y="965" font-family="Arial, sans-serif" font-size="20" font-weight="600" text-anchor="middle" fill="#1A1A1A">Shield</text><text x="1745" y="990" font-family="Arial, sans-serif" font-size="14" font-weight="400" text-anchor="middle" fill="#77736C">35 mana</text></svg>